<?xml version="1.0" encoding="utf-8"?>
<!-- Generator: Adobe Illustrator 24.1.3, SVG Export Plug-In . SVG Version: 6.00 Build 0)  -->
<svg version="1.1" id="Layer_3" xmlns="http://www.w3.org/2000/svg" xmlns:xlink="http://www.w3.org/1999/xlink" x="0px" y="0px"
	 viewBox="0 0 1584 512" style="enable-background:new 0 0 1584 512;" xml:space="preserve">
  <title>koslogorough</title>
  <g>
    <g>
      <path d="M540.29,179.97c-0.3,0.95-0.36,1.91,0.56,2.51c3.34,2.21,3.5,5.66,3.41,9.07c-0.11,4.11-0.52,8.2-0.8,12.3
        c-2.25,3.44-2.95,7.19-2.27,11.22l0,0l0,0c-0.3,12.2-0.6,24.41-0.89,36.61c-0.15,2.4-0.66,4.8-0.04,7.2
        c0.99,9-1.07,18.1,0.92,27.06h0c-0.02,7.45-0.04,14.9-0.06,22.35l0,0c-0.02,0.52-0.03,1.03-0.05,1.54l0,0v0
        c-0.92,1.63-0.87,3.26-0.03,4.9c0.03,1.03,0.06,2.06,0.09,3.09h0c-0.14,1.82,0.09,3.38,0.93,5.2c1.51,3.26,2.65,6.95-0.41,10.28
        c-0.61,0.66-1.07,1.88,0.07,2.32c1.93,0.73,1.3,2.74,2.33,3.85c-0.77,4.5,2.61,7.48,4.08,11.15c-0.32,3.03,1.84,4.93,3.28,7.16
        c0.05,0.74,0.1,1.48,0.15,2.21c0,0.26,0,0.53-0.01,0.79c-0.03,1.32-0.11,2.64,0.09,3.93c0.65,4.34,3.61,7.7,6.96,8.16
        c0.3,0.76,0.6,1.53,0.91,2.29c0.54,1,1.79,1.21,2.18,2.56c1.21,4.16,4.38,6.72,7.98,8.81h0c0.07,1,0.14,2,0.2,3h0
        c-0.21,4.76,3.72,3.92,6.42,4.75c-0.06,2.5,3.59,2.9,3.18,5.6c0.05,2.24,1.05,3.87,3.12,4.81c0.01,1.02-0.24,2.83,0.65,2.77
        c3.46-0.22,5.46,2.45,8.21,3.56c1.01,0.29,2.03,0.59,3.04,0.88c0.03,3.1,2.19,2.44,4.06,2.3c2.35,0.05,4.71,0.1,7.06,0.15
        c3.92,1.8,7.54,4.55,12.16,4.15c0.27,0.07,0.54,0.14,0.82,0.2c1.27,1.93,2.79,3.39,5.44,2.72h0c3.44,0.05,6.88,0.09,10.32,0.14
        l0.43,0.15c0.6,0.22,1.19,0.48,1.79,0.48c8.86,0.01,17.73-0.03,26.59-0.06c1.56,0.95,1.21,3.43,3.22,4.03
        c0.19,0.06,0.39,0.12,0.58,0.19c-0.18,1.09-0.11,1.85,1.17,2.46c3.83,1.84,6.89,0.79,8.7-3.25l0,0c2.62-1.76,4.3-5.53,8.48-3.94
        c2.13,1.13,4.42,0.45,6.63,0.6c6.05,0.4,12.17-0.68,18.17,0.78h0c6.67-0.02,13.33-0.04,20-0.06l-0.03,0.03
        c-0.6,1.38-2.37,0.34-3.4,1.53c12.18,1.7,24.13,0.6,36.03,0.9c1.15,0.05,2.31,0.3,3.39-0.32l0,0h0c6.35,0.12,12.71,1.08,19.03-0.3
        c2.31,0.73,4.84-1.01,7.07,0.63c-0.17,2.56,1.13,3.79,3.59,3.88c2.14,0.08,3.1-0.94,2.7-3.11c0.3-0.26,0.59-0.52,0.89-0.78
        l-0.11,0.22c3.21,0.06,6.42-1.24,9.64-0.1h0c2.35-0.06,4.69-0.12,7.04-0.19c1.47-0.6,4.58,1.8,4.15-2.27
        c1.09-0.24,2.19-0.47,3.28-0.71l0,0h0l-0.08-0.07c6.07-1.21,12.23-0.4,18.34-0.79c2.39,0.54,4.76,0.12,7.14-0.09
        c3.44-0.02,6.88-0.03,10.33-0.05h0c1.07,0,2.15,0,3.22,0c2.35,0.11,4.7,0.23,7.05,0.34l0,0c0.4,0.45,0.79,0.89,1.19,1.34l0,0v0
        c-0.04,0.21-0.04,0.42-0.01,0.63c-0.11,0.31-0.21,0.63-0.32,0.94l0,0c-0.47,1.2-2.96,1-2.18,3.01c0.57,1.46,1.97,0.84,3.06,0.96
        l0,0l0,0c2.54-0.3,5.68,1.38,7.24-2.18c1.85-0.31,3.8,0.06,5.56-0.81c2.29-0.54,2.63-3.37,4.76-4.1c2.4,0.32,3.35-0.86,3.22-3.14
        c0.22-0.08,0.44-0.13,0.66-0.16c5.81-0.1,11.92,1.52,17.02-2.86l0,0c1.48-0.47,3.26,0.26,4.52-1.13l-0.06-0.08
        c1.89,0.46,2.77-0.24,2.53-2.21c0.27-0.24,0.54-0.48,0.81-0.72c1.82,0.36,4.9-0.88,3.91,3.06c-1.19,1.2-1.45,2.78-0.02,3.59
        c1.89,1.08,5.24,0.79,5.85-0.41c2.01-3.97,5.46-2.67,8.41-3.29c1.04,0.15,2.23,0.43,2.49-1.02c0.2-1.15-0.95-1.37-1.68-1.86
        c-2.5-1.7-5.32-0.66-7.98-0.99c-1.41-0.17-3.28,0.77-3.81-1.56c0.15-0.24,0.18-0.49,0.1-0.75c0.23,0.02,0.45,0,0.67-0.07
        c3.59,0.84,5.57-1.25,7.22-3.96c2.47,0.35,2.25-1.98,3.17-3.18c1.12-0.3,2.33-0.12,3.31-1.09c4.19-4.14,9.35-6.91,14.28-10
        c0.75-0.05,1.49-0.11,2.24-0.16c1.47,0,2.5-0.36,1.77-2.16l0.08-0.3l-0.27-0.15c3.33,0.26,2.51-3.2,4.06-4.53
        c2.95,0.85,2.04-2.24,3.24-3.17c2.88-2.22,6.81-3.5,7.21-7.97c0.28-1.22,0.77-2.25,2.18-2.47c1.31-1.38,2.61-2.75,3.92-4.13
        c0.07-1.24,0.15-2.47,0.22-3.71c1.39-0.15,2.7-0.09,2.94,1.68c0.17,1.3,0.47,2.29,2.11,2.09c1.91-0.23,2.28-1.43,2.07-3.06
        c0.25-0.27,0.51-0.54,0.76-0.81c2.15-2.17,2.32-5.19,3.34-7.84c0.08-0.23,0.16-0.46,0.23-0.69c0.53-1.71,0.9-3.49,2.21-4.86l0,0
        c1.42-2.28,0.28-4.84,0.79-7.23l0,0l0.27-0.28c2.57-3.88-0.29-8.84,2.62-12.8c0.7-0.95-1.16-1.28-2.19-1.35
        c0.01-0.5,0.02-1.01,0.04-1.51c0.2-0.07,0.4-0.13,0.61-0.17c2.27,1.09,1.64-0.55,1.57-1.66h0l0,0c-0.24-1.96,1.75-4.9-2.3-5.16
        c-0.49-0.13-0.97-0.26-1.46-0.39c0.2-0.7,0.62-1.89-0.47-1.74c-2.26,0.31-3.39-1.46-5.07-2.17c0.03-2.2,3.47-2.24,3.01-4.76l0,0v0
        c1.51-1.43,0.92-3.18,0.74-4.88c0.04-0.61,0.07-1.21,0.11-1.82l0.13-0.34c2.44,1.84,1.85-0.28,2.02-1.4
        c0.03-0.17,0.07-0.31,0.14-0.42v0c-0.5-2.82,2.49-1.74,3.37-3.02c0.28-0.2,0.56-0.4,0.84-0.6v0l0,0c1.8,0.65,2.35-0.13,2.32-1.87
        c-0.06-3.7-0.03-7.4-0.03-11.1h0c0.16-0.2,0.46-0.4,0.47-0.61c0.5-10.26,0.49-20.52,0.19-30.78c-0.06-2.25-1.6-3.16-3.79-2.96
        l-0.15,0.08c0.01-1.87,0.03-3.75,0.04-5.62c0.26-0.8,0.52-1.61,0.78-2.41c1.61,0.12,3.55-0.37,2.83-2.13
        c-1.09-2.67,2.03-6.9-2.89-8.12c-0.22-0.08-0.44-0.15-0.66-0.2c0.2-1.55-1.66-3.09-0.02-4.65c1.95-0.17,1.61-2.62,3.16-3.19l0,0
        c0.22-0.46,0.66-0.92,0.64-1.37c-0.19-7.42-0.5-14.85-0.61-22.27c-0.03-1.94-1.71-1.19-2.41-1.94c-0.03-0.24-0.07-0.48-0.14-0.72
        l0,0h0c0.01-3.22,0.73-6.48-0.58-9.63c-0.04-1.31-0.08-2.63-0.12-3.94c0.02-2.46-0.06-4.93,0.09-7.38
        c0.12-2.01-0.7-3.19-2.56-3.77v0h0c-0.25-2.12-0.49-4.24-0.74-6.36l0,0l0,0c0.26-4.1,0.89-8.31-3.08-11.26l0,0
        c-1.03-2.01-0.71-4.21-0.87-6.34c0.52-2.65-1.37-3.69-3.2-4.77l-0.11,0.09c0.56-2.9,0.17-5.36-3.06-6.47
        c-1.32-0.96-0.53-2.42-0.88-3.61c-0.24-0.84,0.21-2.21-0.76-2.44c-2.4-0.58-2.85-2.26-3.16-4.29c-0.05-0.35-1.03-0.56-1.58-0.83
        c0.24-3.08-1.4-5.02-3.89-6.46c-0.71-2-2.06-3.31-4.13-3.84v0l-0.03,0.03c0.41-3.05-1.48-3.81-3.97-3.95
        c-0.6-0.68-1.8-0.23-2.23-1.3c-1.45-3.57-4.4-5.23-7.95-6.07c0.09-0.81,0.15-1.7-0.55-2.21c-3.88-2.81-8.91-3.65-12.41-7.16
        c-0.26-0.26-1.02-0.03-1.54-0.02l0.03-0.06c-1.06-1.23-3.26-0.67-3.89-2.92c-0.3-1.09-2.07-0.64-3.09,0.2h0
        c-1.99-1.38-4.26-1.4-6.55-1.3c-0.52-0.28-1.04-0.57-1.55-0.85c0.03-0.22-0.02-0.42-0.13-0.61c-0.08-2.35-1.83-1.59-3.13-1.69
        c-1.34,0.03-2.69,0.06-4.03,0.08c-1.03-0.06-2.06-0.13-3.09-0.19c-0.81-0.24-1.62-0.47-2.43-0.71c-2.4-1.86-5.25-0.41-7.82-1.03
        c1.58-1.31,3.72,0.15,5.95-1.36c-2.19,0-3.74,0-5.3,0c-1.44-1.4-3.22-0.62-4.85-0.75l0,0l0,0c-0.79-0.02-1.58-0.04-2.36-0.05
        c-1.08,0.52-4.25-0.98-2.35,2.43h0c-0.55,0.25-1.1,0.5-1.65,0.75c-1.33,0.21-2.82-0.45-3.94,0.79h0
        c-3.19,0.04-6.39,0.08-9.58,0.13l0,0c-0.53-0.02-1.05-0.04-1.58-0.06c-2.11-0.63-4.21-0.1-6.31,0.09c-3.74,0-7.49,0-11.23,0
        c-2.38-0.05-4.76-0.09-7.15-0.14c-5.67-0.32-11.35-0.86-17.02-0.92c-18.12-0.18-36.25-0.2-54.37-0.24
        c-3.56-0.01-7.15-0.3-10.68,0.44c-1.7-0.01-3.37-0.09-5.08-0.36c-3.36-0.53-6.81-1.08-10.15,0.26c-0.8,0.21-1.76-0.19-2.38,0.66
        c-2.38,0.07-4.75,0.13-7.13,0.2c-2.64-0.62-5.43,0.27-8.04-0.73h0c-1.15-1.38-2.73-0.74-4.1-0.78
        c-15.63-0.52-31.27,0.46-46.91-0.09c-2.1-0.07-3.87-2.39-5.16-1.41c-2.81,2.14-5.76,0.82-8.59,1.33c-2.01,0.36-4.23-0.63-6.07,0.9
        c-1.46,0.94-3.16,0.48-4.73,0.84c-3.21-0.02-6.42-0.04-9.63-0.06c-3.94-0.21-7.91-0.55-11.15,2.44c-1.2,0.88-2.63,0.56-3.96,0.75
        c-4.37-0.02-8.75-0.12-13.12-0.01c-2.29,0.06-4.51,0.58-5.3,3.25c0.18,0.1,0.35,0.2,0.53,0.3l0.14,0.01l-0.13,0.03
        c-0.16-0.04-0.36-0.01-0.59,0.07l-0.01,0l0,0l0,0l-0.13-0.22l0.18-0.19c-0.28,0.23-0.56,0.45-0.84,0.68
        c-2-0.34-2.61,0.62-2.31,2.45c-0.03,0.24-0.08,0.47-0.15,0.7c-0.22,0.01-0.44,0.04-0.65,0.08c-3.5,0.07-7,0.04-10.49,0.24
        c-1.53,0.09-3.28,0.45-2.34,2.81c-0.23,0.07-0.46,0.16-0.68,0.26c-1.09,0.21-2.18,0.41-3.27,0.62c-2.06-0.12-4.1-0.17-4.76,2.44
        l-0.05-0.04c-3.8,0.47-7.48,1.26-10.46,3.92c-0.25,2.62-1.27,4.49-4.27,4.61c-1.73,0.07-2.05,1.26-1.92,2.72v0l-0.02-0.02
        c-1.61,0.73-3.69,0.89-3.95,3.25c-1.45,0.96-1.46,3.2-3.34,3.79c-2.4-0.21-3.53,1.1-3.94,3.28l-0.12,0.08
        c-1.53,1.11-3.35,1.94-3.73,4.11c-0.06,0.23-0.08,0.46-0.07,0.69c-0.41,0.93-0.58,2.37-1.27,2.69c-3.04,1.42-2.74,4.14-3.02,6.67
        c-1.97,0.22-4.03,0.35-3.47,3.27h0c-0.1,0.27-0.2,0.54-0.29,0.81c-3.79,0.84-1.69,4.16-2.6,6.21c-2.01,2.27-3.5,4.75-3.18,7.95
        l0,0c-0.49,1.37-0.98,2.75-1.47,4.12l0,0c-2.51,1.18-2.24,3.48-2.28,5.66c-0.03,0.22-0.07,0.44-0.11,0.66v0
        c-1.41,1.27-4.61,0.91-3.79,4.19C539.99,174.7,539.4,177.33,540.29,179.97z M730.1,422.99L730.1,422.99L730.1,422.99L730.1,422.99
        z M643.98,233.38L643.98,233.38c-0.48-3.51,0.32-6.92,0.81-10.35c0.17-0.4,0.26-0.8,0.31-1.21c1.01-4.4,0.42-8.87,0.3-13.32h0l0,0
        c0.06-0.98,0.13-1.96,0.19-2.94l0.08-0.04c0.81,0.05,1.07,2.08,1.25,1.13c0.66-3.53,2.9-6.98,1.19-10.77
        c-0.84-3.23,3.36-3.14,3.69-5.6c4.31-1.02,3.37-4.28,3.32-7.15c0-0.23,0-0.46,0.01-0.69c0.09-1.98,0.89-3.04,3.11-3.12
        c1.32-0.05,2.94,0.37,4-1c2.15-3.61,4.82-6.11,9.54-5.79c2.96,0.2,5.98-0.33,8.86-1.27c4.59,0.82,8.68-1.08,12.89-2.33
        c1.5,0.22,3.6-0.63,4.39,0.76c1.86,3.25,4.54,2.65,7.32,2.27c1.99,0.14,4.07,0.32,5.82-0.72c5.01-2.98,10.55-1.76,15.82-1.83
        c3.57-0.05,7.03,0.36,10.31-1.37c5.31-0.01,10.62-0.02,15.93-0.03c0.77-0.04,1.54-0.07,2.31-0.11c0.29,0.03,0.59,0.06,0.88,0.09h0
        l0,0c6.11-0.02,12.22-0.05,18.33-0.07l0,0h0c4.22,0.05,8.43,0.1,12.65,0.15h0c0.94,0.85,2.12,0.72,3.24,0.81h0l0,0
        c2.17,0.53,3.08,3.45,5.75,3.05c3.52,0.77,5.98-0.34,7.03-3.95c0.81,0.02,1.62,0.03,2.43,0.04c1.32-0.01,2.64-0.02,3.95-0.04v0
        c2.43-0.01,4.85-0.02,7.28-0.03l0,0l0,0c1.3-0.01,2.61-0.02,3.91-0.03c4.25,0.03,8.49,0.05,12.74,0.08
        c1.24,0.69,2.58,0.89,3.98,0.81c0.29,0.24,0.58,0.48,0.87,0.72l0,0h0c0.08,2.25,1.75,1.69,3.07,1.72v0
        c4,0.26,7.99,0.51,11.99,0.77h0h0c0.82-0.04,1.64-0.09,2.46-0.13v0c3.36,0.34,6.71,0.69,10.06,1.03l0.3,0.35
        c1.76,3.59,4.91,5.21,8.7,5.91c2.34-0.19,2.63,1.64,3.17,3.22c1.38,3.71,4.08,6.36,7.07,8.77c0.07,0.76,0.14,1.53,0.21,2.29
        c0.03,0.89-0.2,2.45,0.13,2.57c4.39,1.72,2.34,5.65,3.1,8.59c-0.19,2.91-0.37,5.81,2.95,7.31c0.4,2.44,0.55,4.96,1.27,7.31
        c1.02,3.34,0.06,5.64-3.45,7.03l0,0c-0.26,0.32-0.42,0.63-0.47,0.94c-1.25,2.96-0.36,6.27-1.26,9.29
        c-2.51-0.07-2.41,1.58-2.18,3.32h0c-0.37,1.28,0.39,1.53,1.41,1.55c-2.17,2.72,0.9,1.54,1.6,2.13l0.13,0.2
        c0.1,6.56,0.19,13.11,0.31,19.67c0.03,1.44,0.17,2.87,0.26,4.3c0,0.28-0.01,0.55-0.01,0.83c-0.21,1.84-0.41,3.68-0.62,5.52
        c-0.88,0.26-1.75,0.67-2.64,0.74c-2.28,0.16-1.82,2.75-3.33,3.55c1.34,0.9,0.43,3.65,2.95,3.58h0c0.79-0.08,1.65,0.19,2.31-0.49
        c0.23,0.2,0.45,0.41,0.68,0.61c1.61,1.91,2.99,3.9,2.53,6.6l0.12,0.45v0l0,0c-0.15,1.05-0.29,2.09-0.44,3.14
        c-0.26-0.43-0.42-1.08-0.8-1.24c-1.13-0.48-0.62,0.68-0.82,1.05c-0.92,1.68-0.61,3.5-0.43,5.29l0,0l0,0
        c-0.01,1.04-0.02,2.08-0.04,3.12l-0.06-0.04h0c-2.53,0.16-3.78,1.34-3.17,4h0c-0.02,2.11-0.04,4.22-0.06,6.33l0,0v0
        c-0.3,1.03-0.6,2.07-0.89,3.1c-2.59,0.59-2.98,2.65-3.23,4.81c-1.58,2.86-3.65,5.29-6.33,7.18c-1.38,0.99-1.22,3.75-3.83,3.34
        c-2.36,0.16-4.71,0.35-5.7,3.07c-0.65,0.03-1.25,0.15-1.58,0.81c-0.56-0.24-1.12-0.48-1.68-0.72v0h0l0,0.01
        c0.02-0.28,0.03-0.56,0.05-0.85c0.2-0.58,0.79-1.17,0.13-1.77c-0.64-0.59-1.2,0-1.77,0.23l0,0l0,0c-1.8,0.8-3.28,1.93-3.94,3.88
        l0,0c-0.34,2.36-2.35,2.06-3.92,2.45c-2.3,0.36-5.31-1.38-6.51,2.21l0,0c-0.38,0.23-0.75,0.45-1.13,0.68l-0.38,0.23
        c-3.59,1.26-7.34,0.6-11.01,0.91c-1.18-0.31-2.34-0.44-3.24,0.64c-0.42,0.51-1.06,0.89-1.59,0.93l-0.1,0
        c-0.28,0-0.52-0.09-0.67-0.33c-1.3-2.08-3.2-1.14-4.86-1.38h0c-0.85-0.2-1.71-0.4-2.56-0.59c-0.3-0.3-0.59-0.6-0.89-0.9
        c0.45-3.43-0.95-4.04-3.77-2.46c-1.62-0.02-2.54,0.66-2.36,2.41l-0.08-0.09c-1.03,0.3-2.25,0.16-3.44,1.58
        c1.65-0.07,1.9,1.12,2.67,1.77c0.27,0.28,0.53,0.57,0.8,0.85h0l-0.02,0.46h0c-2.36-0.02-4.72-0.04-7.09-0.05h0
        c-0.28-0.45-0.56-0.89-0.84-1.34h0c-0.09-1.69-1.31-1.59-2.48-1.58c-1.33,0.02-0.9,0.85-0.72,1.57c-0.26,0.27-0.52,0.54-0.78,0.8
        c-0.8,0-1.59,0-2.39,0c-0.01-1.14,0.05-2.33-1.6-2.38c-0.86-0.23-1.72-0.46-2.58-0.69c-0.18-0.07-0.37-0.14-0.56-0.2
        c-0.05-1.45-0.27-2.74-2.21-2.56c-4.37-0.6-5.13,0.55-3.51,5.31l0,0c0.73,0.8,1.65,0.5,2.53,0.43l-0.09,0.2
        c-1.1,0.99-3.9,0.39-3.05,3.23c0.02,0.22-0.05,0.41-0.18,0.58c-4.61,0.06-9.22-0.06-13.82,0.23c-3.01,0.19-5.37-0.75-7.48-2.72
        l0,0c-1.28-0.94-2.79-0.68-4.21-0.69c-7.25-0.05-14.49,0.01-21.74-0.04c-1.03-0.01-2.19,0.37-3.15-0.23
        c0.1-0.19,0.21-0.38,0.35-0.56c2.61-0.43,5.09-2.17,7.98-0.29c1.46,0.95,2.54-0.59,3.04-2.08l0,0c1.07,0.12,2.45,0.77,2.22-1.31h0
        c0.61-2.62-0.3-3.81-3.06-3.3l0,0l0,0c-8.02,0.46-16.39-1.61-23.81,3.24l-0.13,0.1c-1.12,0.9-0.23,2.01-0.1,2.98
        c0.15,1.21-0.27,1.61-1.37,1.57l-0.06,0.04c-1.21-2.13-2.83-3.57-5.48-3.3c-3.53-6.06-9.1-7.62-15.63-7.1
        c-1.18,0.09-2.46,0.25-3.56-0.07c-3.05-0.89-5.37-0.12-7.11,2.5c-2.14,0.72-4.26-0.04-6.39-0.05c-0.9-0.88-0.4-2.46-1.6-3.19
        c-3.74-3.25-8.21-3.51-12.84-3.11c-3.28,1.34-2.69-3.82-5.49-3.28c-0.54-0.26-1.07-0.51-1.61-0.77c0.42-3.08-2.26-3.05-3.99-3.98
        c-0.3-1.02-0.59-2.04-0.89-3.06c0.54-2.74-2.79-3.42-3.06-5.73c-0.24-0.55-0.47-1.11-0.71-1.66c-1.94-2.83-1.65-6.08-1.94-9.28
        c-0.37-4.06-0.26-8.19-1.42-12.16v0l0,0c-0.02-0.8-0.03-1.6-0.05-2.4h0c0.02-1.31,0.05-2.62,0.07-3.93
        c-0.75-0.96,1.78-3.57-1.61-3.21l0,0l0,0c-0.23-0.29-0.46-0.57-0.69-0.86l0,0c-0.02-9.24-0.02-18.47-0.07-27.71
        c-0.01-1.41,0.42-2.94-0.8-4.12c0.62-3.19-2.63-2.02-3.71-3.29c-0.14-1.3-0.28-2.61-0.42-3.91h0
        C644.39,237.64,644.2,235.51,643.98,233.38z"/>
      <path d="M538.01,178.53c0.86,0.16,0.59-0.59,0.73-1.15c-0.15-0.23-0.34-0.75-0.54-0.76c-0.63-0.02-0.93,0.49-0.83,1.06
        C537.43,178,537.74,178.47,538.01,178.53z"/>
      <path d="M1047.22,313.93L1047.22,313.93c-0.34,2.67,0.03,4.92,3.23,5.52c0.1,0.82,0.29,1.59,1.37,1.45
        c0.83-0.11,0.89-0.81,0.98-1.45h0c0.02-0.51,0.03-1.02,0.05-1.53c-0.1-1.59,0.43-2.93,1.61-4.01c2.1,0.04,4.2,0.08,6.3,0.13
        c0.87,1.2,3.99,0.02,3.16,3c-0.63,0.07-1.29,0.04-1.63,0.75c-1.09,0.07-1.43,0.62-1.64,1.73c-0.83,4.31-0.8,8.66-0.6,12.97
        c0.35,7.61-0.73,15.27,0.78,22.84c-0.02,0.54-0.04,1.07-0.06,1.61c-0.28,3.75-0.42,7.48,0.84,11.12c2.64,1.7,1.36,5.13,3.15,7.2
        l0.09-0.07c-0.02,1.07-0.04,2.13-0.05,3.2l0,0c0.34,1.85,1.86,2.83,3.01,4.09l0.21-0.07c0.25,1.64-0.4,3.8,2.31,4.02
        c0.02,5.63,3.51,8.74,8.06,11.07c0.59,2.42,2.93,2.43,4.6,3.36c2.45,1.24,3.75,4.7,7.31,3.81c0.52,0.03,1.05,0.06,1.57,0.09
        c0.43,3.37,3.28,3.27,5.62,3.9c-0.43,2.98,1.92,1.97,3.32,2.33l0,0l0,0c2.34,0.3,4.69,0.59,7.03,0.89l-0.06,0.09
        c0.05,0.49,0.1,0.98,0.14,1.46c-1.11,1.39-2.67,0.67-4.03,0.88c-1.19,0.18-2.89-0.47-3.15,1.46c-0.31,2.29,1.4,2.46,3.05,2.57v0
        l-0.03,0.06c0.36,2.34,1.61,3.49,4.06,3.08c1.07,0.12,2.14,0.23,3.22,0.35l0,0c2.08,2.26,4.76,0.92,7.18,1.2
        c0.74,0.07,1.49,0.14,2.23,0.21l0,0l0,0c-1.13,0.95-1.01,1.62,0.46,1.94c2.57,0.55,5.16,0.43,7.76,0.21v0l0,0
        c5.79,0.32,11.58,0.64,17.37,0.96c2.8,1,5.34,2.41,8.59,2.44c11.24,0.1,22.52-0.84,33.74,0.58c0.93,0.12,2.15,0.08,2.16-1.13
        c0.01-2.78,1.11-5.66-0.62-8.31v0c-0.6-0.76-1.21-1.59,0.46-1.62c2.49-0.04,4.98,0.04,7.47,0.06c0.83,0.2,1.65,0.41,2.48,0.61
        c0.61,2.07,1.91,2.97,4.07,2.42c0.23-0.03,0.45,0.01,0.66,0.1c4.69,1.98,9.58,0.49,14.36,0.78c0.51,0.03,1.02,0.06,1.54,0.09h0
        c1.88,2.36,3.75,4.72,5.63,7.08c1.17,1.3,2.74,0.79,4.13,0.79c25.77,0.03,51.54,0.01,77.31,0.07c2.08,0,4.13-0.2,5.53-1.63
        c1.67-1.71,3.6-1.61,5.61-1.71l0,0c0.2,0.04,0.41,0.09,0.61,0.14c-0.55,2.7,1.57,1.13,2.46,1.54v0c1.06,0,2.11-0.01,3.17-0.01
        c1.33-0.01,2.66-0.01,3.98-0.02l0,0c2.8-0.2,6.04,1.18,7.96-2.19c5.19-1.72,10.37,0.69,15.6-0.02c6.25-0.85,12.62,0.57,18.87-0.83
        l0,0c1.11-1.12,3.97,0.59,3.91-2.43c0.23,0,0.46-0.03,0.68-0.11c2.43,0.03,4.91,0.52,7.2-0.76c3.38-1.1,6.91-0.33,10.34-0.82
        c2.34,0.08,5.46,1.01,6.75-0.79c1.73-2.4,3.76-2,5.88-2.33c1.9-0.3,3.98,0.54,5.72-0.85c0.31-0.76,0.63-1.53,0.94-2.29
        c3.26-0.77,7.27,0.65,9.46-3.24h0c2.05-0.32,4.11-0.64,6.16-0.95c1.32,0.37,2.44-0.15,3.51-0.83c-0.32-0.5-0.64-1-0.96-1.49v0
        c0.76-0.28,1.52-0.55,2.28-0.83c0.97,0.04,2.04,0.31,2.4-1.04l0,0h0c-0.35-0.96,0.73-1.32,0.88-2.08
        c3.27-0.26,4.45-3.87,7.47-4.65c0.91-0.24,0.81-1.49,0.64-2.42c0.48-0.09,0.87-0.28,1.19-0.52c2.96-1.5,4.45-4.2,5.27-7.44
        c0.96-0.86,1.92-1.72,2.88-2.58c3.6-1.39,7.98-9.63,8.03-15.11l-0.02-0.02c0.31-0.23,0.63-0.46,0.94-0.69v0l0,0
        c3.73-0.72,1.53-3.79,2.25-5.7c0.02-0.51,0.04-1.02,0.06-1.54c0.28-1.85,0.57-3.7,0.85-5.54c1.57-0.62,2.54-1.54,2.48-3.47
        c-0.05-1.53,0.38-3.07,0.6-4.6h0l0,0c1.77-10.53,0.47-21.17,1.1-31.74c0.2-0.02,0.39-0.04,0.59-0.06v0
        c0.03,0.39-0.01,0.81,0.11,1.17c0.1,0.3,0.46,0.85,0.61,0.05c0.74-3.92,1.7-7.86-0.74-11.58c-0.19-0.01-0.37-0.02-0.56-0.04
        c-0.6-8.03,0.26-16.11-0.72-24.13c-0.31-2.51-0.74-4.95-3.32-6.26c-0.01-3.17,0.67-6.99-1.75-9.04c-1.74-1.48-1.54-2.68-1.69-4.24
        c0.87-5.4-1.66-9.62-4.72-13.67c-0.49-1.07-1.72-0.92-2.49-1.52c-0.01-4.66-4.04-6.72-6.56-9.64c-1.24-1.43-1.09-4.92-4.5-3.96
        c-0.28-0.77-0.55-1.54-0.83-2.31h0c-1.39-2.6-2.81-5.15-6.42-4.69c-1.61-1.49-3.11-3.17-5.52-3.33c-2.54,0.11-4.14-1.39-5.54-3.24
        c-2.52-0.8-4.88-1.91-7.08-3.37c-0.71-1.29-1.96-1.44-3.23-1.52l0,0c-2.26-3.15-5.43-0.98-8.16-1.39
        c-0.98-0.05-1.97-0.1-2.95-0.14c-0.3-0.24-0.6-0.48-0.9-0.72h0c-1.98-0.51-3.06-2.93-5.45-2.54l0,0c-2.38-1.23-4.9-0.64-7.37-0.55
        l0,0l0,0c-7.67-0.34-15.34-0.67-23.01-1.01c-4.25-2.76-8.51-3.44-12.78-0.03h0c-0.23,0.32-0.46,0.64-0.69,0.95
        c0.22,3.49-1.64,4.23-4.79,4.14c-7.73-0.21-15.46-0.1-23.19-0.12c-0.23-0.11-0.46-0.19-0.71-0.23c-0.91-0.91-2.13-0.53-3.2-0.79
        l0,0l0,0c-0.55-3.34-3.55-2.37-5.51-2.91c-2.25-0.62-4.05,0.62-5.02,2.81c-0.21,0.12-0.44,0.2-0.67,0.26
        c-1.61,0.22-3.4-0.65-4.81,0.79c-5.3-0.03-10.61-0.06-15.91-0.09c-4.96-1.83-10.13-0.17-15.16-0.87c-0.21-0.05-0.43-0.1-0.64-0.16
        c-1.32-0.6-1.6-2.64-3.33-2.66c-4.53-0.06-9.06-0.13-13.6-0.2v0l0,0c-8.51,0.09-17.03-0.47-25.5,0.77c-10.89,0-21.78,0-32.67,0
        c-4.76-0.82-9.55-0.96-14.36-0.75l0,0l0,0c-4.48-0.1-8.97-0.2-13.45-0.3c-2.05-1.03-4.02-2.28-6.17-3.04
        c-5.71-2.03-8.72-5.8-9.11-11.83c-0.15-1.53,0.45-3.58-2.32-3.23h0c-1.16-2.03-0.51-4.31-0.92-6.45l0,0
        c0.06-0.48,0.12-0.97,0.18-1.45v0l0,0c0.12-1.48,2.39-0.17,2.25-1.51c-0.48-4.34,1.81-8.59,0.3-12.93v0
        c-0.1-0.52-0.19-1.05-0.29-1.57h0c0.11-0.2,0.18-0.41,0.21-0.64c3.02,0.22,4.17-2.03,5.44-4.12c0.54,0,1.07,0.01,1.61,0.01
        c1.71-0.17,3.61-0.06,3.92-2.47c3.44,0.06,6.89,0.13,10.33,0.2c-0.39,0.47-1.07,0.93-1.1,1.43c-0.04,0.77,0.77,0.81,1.41,0.76
        c1.45-0.13,1.31-1.26,1.38-2.25h0c1.3-0.3,2.61-0.6,3.91-0.9v0c1.16-0.03,2.88,0.49,3.28-0.71c0.68-2.04,2.07-1.64,3.43-1.64
        c24.26-0.01,48.51-0.01,72.77,0.02c1.19,0,2.29-0.25,3.44,1.13c0.94,1.13,3.85,1.13,4.76,0.05c1.38-1.64,2.8-1.16,4.22-1.17
        c10.6-0.08,21.21-0.08,31.81-0.1c2.41,1.78,5.09,2.17,7.96,1.56c1.03,0.04,2.06,0.07,3.09,0.11c0.27,0.26,0.54,0.52,0.81,0.78
        c0.45,1.11,0.61,2.48,2.27,2.51v0c1.78,1.33,3.79,0.4,5.68,0.58h0l0,0c3.24-0.02,6.48-0.04,9.72-0.06
        c1.52,0.66,3.7,0.07,4.21,2.67c0.21,1.06,1.78,0.67,2.79,0.75c1.22,1.43,3.61,1.64,4.05,3.89c0.53,3.28,2.58,6.08,3.11,9.36
        c0.05,0.32,0.1,0.65,0.12,0.98c0.17,3.39,1.98,6.03,3.9,8.62c0.02,0.7-0.03,1.42,0.66,1.88h0l0,0c1.12,0.97,2.61,0.94,3.73,0.56
        c3.32-1.11,7.23,0.72,10.15-2.11c1.03-0.09,2.05-0.17,3.08-0.25v0c2.06,0.09,4.12,0.18,6.19,0.27c-0.76,0.35-1.51,0.7-2.27,1.05
        c2.69-0.07,5.24,2.41,7.98,0.41h0c6.6,1.5,13.29,0.46,19.93,0.72c3.98,0.01,7.96,0.07,11.93-0.01c1.31-0.02,3.31,0.4,2.5-2.19
        c1.25-0.08,2.51-0.17,3.76-0.25l0,0l0,0c7.25,0.02,14.49,0.03,21.74,0.05c2.11,1.59,3.62,1.61,3.91-1.51
        c0.27-0.24,0.54-0.48,0.81-0.73c1.55,0.46,2.09-0.31,2.34-1.74c0.48-2.74,0.62-5.42-0.71-7.98h0c-0.02-1.55-0.03-3.1-0.05-4.65
        c2.59-4.13,1.01-8.51,0.76-12.81c0-1.81,0.06-3.65-2.38-4v0c-0.27-0.26-0.54-0.52-0.82-0.77l0.08-0.07
        c0.44-2.45-0.78-4.67-0.93-7.04c-2.04-2.92-1.09-6.54-2.27-9.66c-2.71-5.86-3.32-12.66-7.95-17.65c0.04-0.22-0.01-0.42-0.15-0.59
        c-0.88-3.44-3.12-5.73-6.18-7.34c-0.25-2.93-2.75-3.21-4.77-4.05c0.22-2.47-1.07-3.28-3.33-3.04c-2.78,0.32-2.93-2.31-4.16-3.73
        c-1.72-1.77-3.41-3.61-6.2-3.44l-0.01,0.01c-1.21-3.05-3.7-3.4-6.51-3.07c-3.55-0.68-6.02-4.51-10.16-3.46
        c-4.46-2.1-8.75-4.73-14.04-3.87c-0.88,0.14-1.82-0.11-2.73-0.18c-4.56-0.97-9.13-1.94-13.69-2.92v0l0,0
        c-3.64-0.09-7.28-0.18-10.92-0.27c-2.16-0.48-5.18-0.22-6.32-1.56c-4-4.69-9.07-2.98-13.78-2.98c-2.18,0-4.12,1.46-4.76,3.93
        c-0.81,0.24-1.63,0.47-2.45,0.71c-1.29,0.05-2.58,0.11-3.87,0.16c-2.13,0-4.26-0.01-6.39-0.01c-1.43,0.27-3.5-1.06-3.96,1.61l0,0
        l0,0l-0.01,0.01c-1.69,0.1-3.45-0.42-5.03,0.58l0,0c-4.4,0.24-8.49-1.11-12.73-1.98c-5.07-1.04-10.52-0.22-15.8-0.2l0,0l0,0
        c-8.33-0.06-16.65-0.17-24.98-0.16c-15.59,0.02-31.17,0.11-46.76,0.17c-1.58-0.02-3.16-0.04-4.75-0.05
        c-4.52-0.34-9.04-1.22-13.57-0.09c-1.31,0.06-2.62,0.11-3.93,0.17c-1.86,0-3.72-0.01-5.58-0.01c-1.6-0.01-3.2-0.02-4.8-0.03v0
        c-1.46-0.01-3.2-0.55-4.32,0.05c-4.83,2.63-10.01,1.93-15.12,2.23c-2.86,0.17-5.82-0.7-8.6,0.66v0
        c-5.46-0.22-10.57,0.84-15.09,4.08c-2.89,0.06-5.79,0.12-8.68,0.18c-2.77-0.51-5.01-0.12-5.47,3.25
        c-0.69,1.01-1.66,0.67-2.58,0.53c-2.94-0.8-5.92-1.75-8.01,1.64c-0.26,0.27-0.52,0.55-0.78,0.82c-0.49,0.06-0.97,0.12-1.46,0.18
        c-2.39,0.25-4.78,0.5-7.18,0.75c-2.18-0.43-4-0.1-4.85,2.29c-3.34,2.2-6.92,4.07-9.57,7.2c-0.29,0.22-0.59,0.44-0.88,0.66
        c-2.05,0.2-3.91,0.64-3.95,3.27l0-0.01c-2.79-0.18-2.81,2.45-3.98,3.92c-1.56,0.06-2.62,0.61-2.44,2.42
        c-2.69,2.63-6.07,4.63-7.7,8.25c-0.04,0.49-0.08,0.97-0.12,1.46c-0.28,0.25-0.55,0.51-0.83,0.76c-0.61,0.12-0.89-1.78-1.58-0.38
        c-0.67,1.36-1.19,2.87-0.72,4.47l0,0l0,0c-0.64,2.27-1.19,4.55-1.09,6.94l0,0c-1.46,2.27-3.7,4.16-3.72,7.13
        c-0.04,6.2,0.01,12.4,0.03,18.6c-0.04,1.02-0.08,2.04-0.12,3.06c-0.34-0.54-0.65-1.5-1.03-1.53c-1.03-0.09-0.45,0.94-0.63,1.45
        c-0.86,2.41-0.97,4.9-0.59,7.42c0.1,6.59-1.15,13.19-0.04,19.78c-0.01,0.77-0.03,1.55-0.04,2.32c0.61,2.47-1.85,5.91,2.29,7.26
        c0.08,0.24,0.14,0.47,0.2,0.71c-1.52,8.6,1.46,16.36,4.53,24.09l0,0v0c0.01,0.23,0.05,0.46,0.12,0.68
        c-0.37,3.89,1.07,7.74,0.17,11.68c-0.51,2.24,1.33,2.82,3.06,3.24c2.77,2.57,4.04,5.84,4.48,9.5l0.31,0.23
        c2.23,0.03,1.31,2.35,2.36,3.24c0.25,1.08,0.51,2.16,0.76,3.24c-0.36,1.94,0.82,2.71,2.42,3.15c1.29,1.64,1.05,4.52,3.94,4.87
        c-0.09,0.64-0.25,1.4,0.4,1.77c3.21,1.82,5.89,4.84,10.07,4.46c0.51,2,1.68,3.24,3.84,3.35l0,0c2.64,3.31,6.18,4.68,10.31,4.8h0
        c0.37,1.56,1.49,1.99,2.94,1.99c3.92,0,7.86,0.33,11.76-0.4c0.99,0.24,1.99,0.48,2.98,0.71c0.95,1.28,2.36,0.92,3.59,0.87
        c3.3-0.15,6.34,0.56,9.17,2.25l0,0c1.07,0,2.15,0,3.22,0c1.33-0.01,2.66-0.02,3.99-0.04c7.16-0.22,14.32,0.97,21.48,0.09
        c17.26-0.03,34.53-0.06,51.79-0.09c3.37,0.78,5.86-0.71,8.04-3.06c1.22,0.23,3.03-0.4,3.4,1.25c0.53,2.35,2.26,1.71,3.69,1.95
        c0.38,0.23,0.78,0.3,1.2,0.33c1.94,0.87,3.06,3.11,5.27,3.52h0c1.55,0.49,1.64,4.34,3.32,2.72c3-2.9,6.24-1.21,9.3-1.8
        c1.1-0.21,2.94,0.42,3.04-1.03c0.15-2.38,2.34-2.57,3.32-3.96c-0.18-1.73,0.89-2.31,2.13-2.74c0.19-0.05,0.37-0.11,0.56-0.19
        c3.88-0.72,7.81-0.72,11.73-0.78c0.89,0.16,1.77,0.44,2.66,0.45c11.03,0.13,22.06,0.22,33.08,0.32c2.69,1.05,4.63,4.13,8.12,3.03
        c9.31,0.02,18.61,0.03,27.92,0.05l-0.06,0.11c4.59,2.82,10,3.95,14.45,7.04c0.75,0.35,1.51,0.69,2.26,1.04
        c-0.38,3.79,3.75,4.9,4.71,7.9c0.27,2.14,0.54,4.28,0.8,6.42l0,0c0.02,1.02,0.04,2.04,0.06,3.06c0,2.14-0.01,4.27-0.01,6.41v0
        c-0.02,0.48-0.03,0.96-0.05,1.44v0c-1.22,4.21,0.98,9.5-4.09,12.49c-2.68,1.58-3.81,5.45-7.71,5.26c-1.44,0.04-3.02-0.3-4.29,0.18
        c-2.91,1.09-5.41,3.22-8.62,3.59c-0.23,0.03-0.47,0.05-0.7,0.05c-8.21,0.05-16.42,0.09-24.63,0.14c-1.6,0.01-3.21,0.01-4.81,0.02
        v0c-1.06-0.02-2.13-0.04-3.19-0.06c-1.06-0.01-2.13-0.02-3.19-0.02v0c-1.06,0-2.12,0-3.17,0c-1.28,0.67-3.74-1.67-4.01,1.57l0,0
        c-4.58-0.28-9.2,1.98-13.9,0.02c0.68-1.25,2.31-0.44,2.66-1.75c1.39-4.3-1.4-3.55-3.87-3.2c-0.31,0-0.61-0.01-0.92-0.01
        c-2.52-1.15-2.84,0.68-3.24,2.39c-2.82,3.48-6.94,3.29-10.8,3.81l-0.26,0.27c-2.22,0.02-4.46,0.19-6.67,0.02
        c-7.07-0.55-14.14-0.69-21.2,0.02c-10.91,0.04-21.82,0.08-32.73,0.11c-4.22-0.06-8.43-0.12-12.65-0.19
        c-2.84-1.51-5.89-0.47-8.84-0.73c-1.81-0.16-4.15,0.67-5.33-0.55c-2.54-2.64-5.39-1.95-8.31-1.74c-1.01-0.04-2.03-0.08-3.04-0.11
        l-0.37-0.19c-1.06-0.87-0.02-3.97-2.91-2.9c-0.48-0.08-0.96-0.16-1.45-0.24c-0.07-1.75,0.23-3.72-2.37-3.94l0,0
        c-1.32-1.38-0.93-3.26-1.26-4.88c-0.36-1.81-1.1-2.74-2.85-2.97c-0.96-1.76-0.46-3.73-0.83-5.57c0.04-1.32,0.09-2.64,0.13-3.96h0
        c1.16-1.16,0.37-2.69,0.76-4l0,0c0.25,0,0.5-0.01,0.75-0.03c0.79-0.01,1.57-0.01,2.36-0.02h0c3.48,0.55,3.37-1.67,3.12-4.02l0,0
        c-0.01-0.28-0.02-0.56-0.03-0.84h0c-0.05-3.61-2.01-5.73-5.45-6.11c-2.88-0.32-5.82-0.08-8.73-0.09
        c-4.94-0.91-9.13,0.65-12.82,3.86h0c-0.23,0.05-0.45,0.09-0.68,0.12c-1.77-0.2-3.4-0.2-3.27,2.3c-1.41,0.33-3.17-0.25-4.03,1.53h0
        c-11.96-1.06-23.96-1.41-35.96-1.6c-3.03-0.05-6.54-0.56-8.89,1.17c-3.72,2.74-7.61,1.73-11.49,1.97
        c-0.03-0.97-0.05-1.94-0.08-2.91c0.48-0.06,0.97-0.13,1.45-0.19c2.32-0.42,1.43-2.02,1.15-3.31c-0.31-1.42-0.74-2.54-2.67-2.76
        c-5.64-0.64-11.26-0.03-16.89-0.05c-2.07-0.01-2.16,1.49-2.33,2.95l0,0C1049.04,311.92,1045.12,310.73,1047.22,313.93
        L1047.22,313.93z"/>
      <path d="M961.17,393.56c-0.87-0.47-1.4-0.1-1.76,0.71c-0.19,0.17-0.47,0.31-0.55,0.52c-0.63,1.69-4.35,2.91-1.8,4.93
        c2.88,2.28,2.47-2.24,4.13-2.92c1.25-0.12,2.26-0.48,2.01-2.05C963.01,393.56,962.51,392.82,961.17,393.56z"/>
      <path d="M1053.53,364.15L1053.53,364.15L1053.53,364.15c-0.24-0.03-0.48-0.04-0.72-0.05l0-0.01h0c-0.09-0.86,0.25-2.03-1.03-2.2
        c-1.34-0.18-1.19,0.99-1.39,1.86c-0.61,2.62,1.02,4.25,2.48,5.98c0.3,1.5,0.47,3.04,0.94,4.48c0.71,2.17,1.83,1.74,2.93,0.24l0,0
        v0c1.08-1.52,2.15-3.04,3.45-4.87c-1.33-0.24-2.4-0.43-3.48-0.62C1057.29,366.29,1055.98,364.84,1053.53,364.15z"/>
      <path d="M486.91,210.26c0.44-2.4-1.42-4.79-0.02-7.19c-0.21-2.08-0.43-4.16-0.64-6.25h0c1.57-4.47,1.08-5.77-2.48-6.53
        c-1.49-0.44-2.86-0.38-3.97,0.87c-3.91,2.97-8.06,5.64-11.34,9.37c-2.92-0.08-2.6,2.77-3.83,4.22c-2.5,1.73-5.33,3.11-6.51,6.21
        c-0.21,0.03-0.41,0.09-0.6,0.18c-2.95-0.03-5.1,1.31-6.53,3.86c-2.62,0.53-3.28,3.16-4.99,4.66l0,0
        c-2.14,0.44-3.09,2.93-5.39,3.09h0c-2.06,4.85-7.61,6.35-10.22,10.68l-0.06-0.08c-1.79,0.47-4.03,0.35-4.02,3.12
        c-0.19,0.08-0.38,0.14-0.58,0.17c-2.25,0.33-2.99,2.33-4.22,3.8h0c-2.39,1.9-4.89,3.7-6.27,6.57c-1.82,0.71-4.14,0.86-3.68,3.85
        c0.28,1.86-0.27,4.13,2.76,4.08c1.33,1.88,4.51,2.41,4.03,5.63c-0.44,2.95,1.11,4.39,3.87,4.79c-0.27,1.92,1.04,1.85,2.38,2.15
        c2,0.44,4.6,0.28,4.88,3.33h0c0.59,2.23,2.89,3,4.04,4.74c-0.08,1.33,0.43,2.02,1.78,2.58c1.35,0.57,3.11,0.77,3.88,2.37
        c0.63,1.28,1.73,1.7,2.93,1.23c1.45-0.57,0.88-1.96,0.89-3.09c0.26-0.22,0.53-0.43,0.79-0.65c0.08,1.16,0.42,2.38,0.18,3.48
        c-0.7,3.33,0.8,4.82,3.89,5.22l-0.06,0.09c0.01,2.34,1.95,1.86,3.29,2.25c2.71,1.78,4.95,4.08,7.12,6.46
        c0.79,1.09,2.06,0.68,3.09,1c-0.29,3.02,2.18,3.09,4.06,3.8c0.17,2.43,2.61,2.67,3.88,4.04h0c-0.09,2.79,2.86,2.49,4.06,3.96
        c1.08,2.45,2.97,3.45,5.6,3.15c0.23,0.03,0.46,0.06,0.68,0.11c0.14,0.83-0.08,1.8,0.91,2.28c4.49,1.47,6.18,0.65,6.22-3.71
        c0.17-17.37,0.16-34.74,0.21-52.1c0.06-1.85,0.18-3.7,0.17-5.55c-0.02-11.39-0.07-22.79-0.11-34.18c0.13-0.21,0.18-0.39,0.17-0.55
        C487.91,215.28,487.72,212.77,486.91,210.26z"/>
      <path d="M143.16,87.31l0.05-0.4c-2.33,0-4.66,0-6.98,0l0,0.4C138.54,87.31,140.85,87.31,143.16,87.31z"/>
      <path d="M540.48,421.32c-0.68,0.53-2.66-0.45-2.54,1.75c0.12,2.12,1.93,2.21,3.4,2.49c1.42,0.27,2.13-0.48,2.23-1.98
        C543.72,421.4,542.31,421.33,540.48,421.32z"/>
      <path d="M115.38,112.27c0.04,0.51,0.08,1.02,0.12,1.53c-0.28,2.46-0.08,4.61,3.11,4.84c0.25,3.46,0.51,6.91,0.76,10.37
        c-0.12,3.42-0.32,6.84-0.35,10.26c-0.16,20.48-0.27,40.95-0.4,61.43c-0.06,0.5-0.16,0.99-0.29,1.47
        c-1.01,4.03-3.74,7.67-2.77,12.14l0,0c-0.01,1.32-0.01,2.64-0.02,3.97c-0.01,3.7-0.02,7.39-0.04,11.09
        c-0.13,1.17-0.59,2.72,0.27,3.4c2.48,1.97,2.02,4.59,2.08,7.12c0.06,2.35,0.01,4.71,0.01,7.06l-0.06-0.03
        c-2.46,0.8-2.53,2.74-2.31,4.82c0.02,0.8,0.03,1.61,0.05,2.41l0,0l0,0c-0.03,2.22-0.06,4.45-0.1,6.67
        c-0.03,1.57,0.27,2.89,2.17,3.08l0,0c0.83,2.24-0.5,4.82,1.13,6.93c0.38,2.4,0.42,4.8-0.02,7.2c-0.29,0.55-0.79,1.09-0.84,1.67
        c-0.55,6.89,1.51,14.1-2.53,20.56l0,0c-1.14,6.15-1.04,12.3-0.04,18.46l0.31-0.25l0,0.19l0,0l-0.31,0.06
        c0.61,2.47-1.19,5.78,2.5,7.17l0,0v0c-0.01,0.77-0.01,1.54-0.02,2.31l0,0c-3.62,1.52-2.1,4.66-2.29,7.26l0,0c0,1.06,0,2.11,0,3.17
        c0.02,2.37,0.03,4.74,0.05,7.11h0c-0.88,3.88,1.86,7.02,2.25,10.49c1.01,8.94,1.06,17.96,0.56,26.97
        c-1.45,3.87,0.71,8.57-2.81,12.04c-0.43,0.42-0.27,1.96,0.91,2.22c1.44,0.31,1.15,2.02,2.27,2.51c0.21,0.55,0.41,1.09,0.62,1.64
        c-0.27,2.63-0.6,5.26-0.3,7.88c-0.18,0.73-0.13,1.49,0.44,2.33c4.07,4.07,8.38,7.41,14.76,6.13c1.62-0.33,3.42,0.2,5.13,0.33
        c0.85,1.63,2.52,2.31,3.87,3.36h0l0,0c7.93,2.16,16.02,1.46,24.08,1.36c1.24,0.09,2.48,0.18,3.71,0.27
        c-0.26,0.38-0.51,0.75-0.77,1.13c0.56,0.11,1.12,0.22,1.68,0.33l0,0c2.59,1.36,5.28,0.83,7.94,0.35c1.48-0.27,1.02-1.03,0.34-1.78
        h0c6.8-1.23,13.66-0.97,20.52-0.89c4.1,1.6,8.44,0.1,12.62,0.96c-0.22,1.03-1.94,0.09-1.88,1.45c2.92,1.79,4.49-1.69,6.92-1.79
        l0,0l0,0c0.54-0.47,1.08-0.95,1.62-1.42l0,0c1.72,0.08,2.26-0.86,2.25-2.45c-0.05-7.22,0.04-14.44-0.2-21.65
        c-0.03-0.98,0.65-3.51-2.09-3.2v0c-0.08-1.52-0.16-3.04-0.25-4.56c0.11-5.54,0.21-11.08,0.32-16.62l-0.28-0.32l0.01,0l0.28,0.32
        c2.54-0.08,3.09-2.47,4.46-3.9c0.27-0.11,0.52-0.3,0.77-0.62h0c0.02-3.61,0.03-7.21,0.05-10.82c0.66-4.67-3.35-3.1-5.45-4.08
        c-0.57-0.68-0.96-1.41-0.83-2.34c0.18-2.26-2.57-2.39-3.04-4.18l0-0.01c0-0.95,0-1.9,0.01-2.85v0l0,0
        c0.68-0.76,1.91-0.91,2.17-2.16c0.88-4.15,1.51-8.36,0.57-12.53c-0.77-3.44-1.74-6.4-0.82-10.35c1.64-7.08,1.51-14.58,2.12-21.9
        l0,0c2.96-1.64,6.44-0.39,9.46-1.71c4.06,0.32,8.17,0.51,11.24,3.78c4.14,0.9,6.79,4.17,9.36,6.91c3.12,3.33,6.91,5.55,10.3,8.38
        c0.25,1.92,0.8,3.52,3.26,3.16c0.25,0.29,0.51,0.58,0.76,0.86c1.83,2.78,3.7,5.53,7.33,6.18l-0.03,0.02
        c0.12,1.53,0.3,3.03,2.25,3.32c1.15,0.99,1.38,2.89,3.18,3.24c0.69,0.79,1.56,0.87,2.51,0.64c1.14,2.14,2.48,4.13,4.48,5.58l0,0
        c1.44,1.87,2.57,4.07,5.09,4.81c0.9,0.61,1.86,1.05,2.99,0.91c2.42,4.92,7.78,6.64,11.29,10.37c0.93,4.45,5.55,4.54,8.21,6.94
        c0.95,0.09,1.89,0.18,2.84,0.28l0-0.02c0.24,1.25,0.65,2.5,0.05,3.77c-1.16,0.74-3.23,0.45-3.08,2.71
        c0.12,1.85,1.32,1.48,2.47,1.25c0.23,0.03,0.45,0.1,0.66,0.21c0.84,1.69,1.96,3.01,4.04,3.08c0.76-0.03,1.53-0.06,2.29-0.09l0,0
        c2.39,0.8,4.82,1.28,7.35,0.84c0.88,0.27,0.58,1.05,0.72,1.64c-0.05,2.84,2.44,3.87,3.97,5.58c0.16,2.01,1.71,2.16,3.2,2.41
        c1.91,0.51,2.92,2.43,4.57,3.14c6.32,2.74,11.59,7,16.99,11.12c0.63,1.52,0.56,3.75,3.24,3.2l0.02-0.05
        c0.8,4.53,5.66,4.98,7.99,7.98l-0.06,0.03c0.93,4.08,3.98,4.25,7.29,3.96c0.72,0.05,1.44,0.11,2.16,0.16
        c0.67,2.11-0.17,5,3.03,5.79c7.43,1.13,14.93,0.4,22.39,0.75c0.38,2.05-0.63,4.3,0.92,6.18c0.84,1.08,2.04,0.82,3.15,0.86h0
        c2.6,0.92,5.28,0.88,7.97,0.65c2.51,0.03,5.03,0.07,7.54,0.09c2.82,0.02,5.08-0.91,6.23-3.7c2.5,0.18,3.34-1.43,3.76-3.5
        c1.1-0.17,2.21-0.42,3.31-0.61c1.79-0.1,3.59-0.16,5.38-0.21c12.52,0.23,25.04,1.43,37.56,0.07c0.04,0.65,0.13,1.31,0.11,1.96
        c-0.18,5.78,0.05,6.11,5.69,6.14c4.98,0.02,9.96-0.11,14.95-0.18c1.52-0.24,3.03-0.4,3.33-2.42c0.29-1.99-1.04-2.32-2.45-2.65l0,0
        l0,0c-1.82-3.63-5.26-1.49-7.89-2.23l0,0c0.27-0.76,2.22-0.87,0.87-2.25c0.22-0.31,0.43-0.61,0.65-0.92
        c5.44-1.8,11.08-1.29,16.66-1.5c2.56,0.49,3.79-0.35,3.15-3.11c0.15-1.2,0.19-2.26-1.16-2.98c-2-1.07-3.89-2.35-5.82-3.53
        c-0.85-0.23-1.71-0.46-2.56-0.69c0.05-0.25,0.05-0.5,0-0.74c0.3-2.64-0.95-3.56-3.44-3.1h0c-0.94-0.58-0.66-1.49-0.62-2.33
        c0.17-1.16-0.87-1.3-1.42-1.91c-1.7-1.92-5.11-2.59-4.78-6.09l0,0c1.45-0.13,2.91-0.24,4.36-0.4c0.81-0.09,1.64-0.34,1.66-1.34
        c0.02-1-0.8-1.26-1.61-1.39c-0.65-0.11-1.31-0.19-1.97-0.28l-0.4,0.21l-0.04,0.05l-0.03-0.07h0c0.14-0.09,0.3-0.15,0.46-0.19
        c-0.07-2.09-0.76-3.56-3.23-3.32c-1.17-0.93-0.92-3.57-3.45-2.86c-0.43-0.35-0.86-0.69-1.29-1.04c-1.37-2-2.88-3.82-5.57-3.97
        c-0.67-2.08-2.23-3.18-4.22-3.79c-1.07-0.8-2.14-1.61-3.21-2.41c-0.95-1.85-1.9-3.61-4.26-4.11c-1.36-0.29-2.2-2.03-3.03-2.48
        c-3.01-1.61-4.19-6.06-8.48-5.52l-0.04,0.06c-1.9-0.59-1.9-3.92-4.68-3.26l-0.41-0.17c-1.37-0.82-1.1-3.71-3.64-3.04
        c-1.03-1.46-1.29-3.96-4.08-3.01l0.05-0.06c-0.41-0.49-0.98-0.92-1.2-1.49c-0.87-2.21-2.66-2.09-4.49-1.92
        c-2.36,0.23-1.01,2.27-1.62,3.35l0,0c-1.45-0.03-2.9-0.06-4.35-0.09c-1.36-0.59-2.68-0.84-2.96-2.93
        c-0.27-2.05-1.47-4.04-3.68-4.97c-0.48-2.11-2.2-3.02-3.87-3.96c0.17-2.85-2.78-2.56-4.02-4c-0.05-0.49-0.1-0.99-0.15-1.48
        c0.01-1.34,0.03-2.68,0.04-4.01h0c1.03-3.69-1.59-3.72-3.99-3.98c-1.99-0.14-2.52-1.73-3.18-3.2c-0.33-0.05-0.61-0.16-0.87-0.3
        c-2.1-1.15-2.27-4.96-5.6-4.41c-3.68-0.24-4.22-4.35-7.02-5.68c-0.37-1.74-2.35-1.13-3.28-2.33c-2.11-2.72-4.46-5.31-7.94-6.41
        c-0.51-1.74-1.42-3.14-3.21-3.78c-1.18-1.32-2.29-2.71-4.09-3.25l0,0c-0.29-1.75-1.14-2.82-3.1-2.51
        c-3.91-0.96-6.23-5.09-10.55-5.33c-0.25-0.01-0.44-1.15-0.66-1.77c-2.52-1.99-6.08-2.85-7.07-6.51c-0.39-1.68-1.91-1.35-3.04-1.71
        h0c-1.95-3.54-5.85-4.76-10.68-3.35c-2.11-2.12,1.76-4.79-0.64-6.88c-0.18-1.92-0.98-3.26-3.14-3.27v0
        c-0.88-0.58-0.6-1.83-1.73-2.44c-2.89-1.55-4.93-4.02-6.32-7c0.17-2.23,1.24-3.83,3.31-4.74c0.22-0.02,0.45-0.05,0.67-0.07
        c4.18-0.04,4.8-4.19,7.24-6.25l0,0c2.63-2.18,6.47-3.17,7.15-7.27c0.79-2.01,2.12-3.37,4.35-3.7c1.61-0.24,2.44-1.99,3.33-2.44
        c2.61-1.32,3.51-4.63,6.57-5.1c2.62,0.22,2.86-2.69,4.6-3.63l0.4-0.17c2.75-1.52,4.32-4.18,6.27-6.48
        c2.07-0.58,3.25-2.07,4.04-3.96c3.08,0.37,3.17-3.39,5.54-4c1.19-1.21,1.94-2.64,3.48-3.76c1.57-1.14,3.49-2.21,4.82-3.77
        c2.07-2.43,4.23-4.82,7.02-6.33c1.69-0.91,2.88-2.03,3.8-3.6c2.43,0.25,3.76-0.84,3.98-3.28c1.1-0.27,2.57-0.19,2.77-1.66
        c0.29-2.19,2.02-2.01,3.44-2.42c2.02-0.1,3.52-0.74,3.28-3.17c0.25-0.26,0.5-0.52,0.76-0.78c3.43-1.5,5.97-4.02,8.13-7l0,0
        c2.15-2.11,5.69-2.83,6.42-6.38l-0.05-0.05c1.33-0.81,3.74-0.51,3.27-3.17c1.32-1.02,2.84-1.47,4.18-2.86
        c1.72-1.79,2.98-4.77,6.05-5.18c2.3-2.82,6.57-3.4,8.09-7.11h0c3.52-0.87,5.83-3.06,7.05-6.45c0.9-1.16,2.82-0.34,3.56-1.98
        c1.35-3.01,3.63-5.05,6.85-5.96c2.72,0,3.1-2.23,3.9-4.07c0.68-2,3.23-2.03,4.07-3.86c2.64-0.54,3.85-3.3,6.34-4.11
        c0.18-0.06,0.09-0.97,0.12-1.48c0.24-0.24,0.48-0.49,0.72-0.73c1.8,0.08,3.4-0.09,3.12-2.56c1.45-1.01,4.06-1.02,3.35-3.89
        c1.02-0.28,2.05-0.56,3.07-0.83c3.02-2,6.21-3.82,8.03-7.16c2.03-0.19,3.58-0.94,3.93-3.2l-0.05-0.06
        c2.81-1.97,6.16-3.38,7.25-7.11c0.97-0.31,1.94-0.62,2.91-0.92l0.37-0.32c0.91-0.47,2.7,0.04,2.25-1.98h0
        c0.26-1.95-0.25-3.43-2.4-3.9c-2.28-1.27-4.68,0.16-7-0.29l0,0c-5.51-1.48-7.42-0.54-8.23,4.03c-0.74,0.09-1.49,0.17-2.23,0.26
        c-1.61,0-3.22,0-4.83,0c-1.03,0.18-2.81-1.12-2.66,1.36l0,0c-0.2,0.27-0.41,0.55-0.61,0.82h0l0,0c-2.37,0.35-4.74,0.68-7.13,0.15
        c-5.83-3.12-11.66-3.88-17.49,0.03c-1.16,1.06-3,0.18-4.09,1.44c-3.43-0.23-6.86-0.47-10.29-0.7c-7.19-1.05-14.38-2.09-21.58-3.14
        l0,0l0,0c-4.9-0.03-9.8-0.26-14.68-0.05c-12.94,0.55-26.05-1.79-38.79,2.22c-3.96,0.22-7.95-0.11-11.84,0.94
        c-1.2,0.33-2.86,0.19-2.44,2.27c-1.69,1.34-4.38,1.9-3.88,4.96l-0.03-0.01c-2.14,0.03-4.06,0.33-4.03,3.14l-0.01-0.01
        c-1.64,0.03-2.65,0.79-3.93,1.97c-2.15,1.98-3.66,4.7-6.39,6.05c-0.62,1.53-2.33,1.94-3.26,3.15c-3.52,0.71-4.42,3.08-4.02,6.29
        c-0.24,0.3-0.48,0.59-0.72,0.89c-2.8,1.43-5.44,3.04-6.5,6.27c-1.76,0.51-4.58-0.56-4.35,2.91c-3.37,0.13-2.51,5.06-5.88,5.18
        c-2.36,0.25-3.63,1.64-4.03,3.91l0.01,0.05c-3.92,0.43-4.99,4.01-7.11,6.43c-0.27,0.26-0.53,0.53-0.8,0.79
        c-1.95-0.38-2.67,0.5-2.41,2.37c-0.98,1.41-2.91,2.26-3.98,2.86c-2.84,1.59-3.56,5.63-7.24,5.85c-2.34,0.7-4.49,2.49-5.85,3.89
        c-1.43,1.47-4.32,2.2-4.42,4.95c-3.4,1.92-5.76,4.87-7.96,7.98c-1.07,0.25-2.14,0.5-3.21,0.75c-1.04-0.06-2.83-0.12-2.84,0.61
        c-0.06,3.76-3.66,5.64-4.39,8.95c-1.88,0.73-4.28,0.93-4.06,3.86c-1.06,0.15-2.15,0.23-3.02,0.97c-3.67,0.67-5.79,3.1-7.21,6.33
        c-1.01,0.8-1.07,2.44-2.53,2.86c-3.42,0.99-5.65,4.5-9.84,4.2c-2.17-0.16-3.51,2.19-4.77,3.99c-0.82,1.16-0.3,3.38-2.59,3.41
        c-1.92-0.17-2.66,3.12-4.28,2.14c-3.57-2.14-7.62,1.04-10.98-1.45l-0.03,0.01c-0.17-1.37-0.25-2.76-0.56-4.1
        c-0.11-0.47,0.15-1.5-0.73-1.39c-0.39,0.05-0.68,0.94-1.01,1.45c-0.08-1.52-0.16-3.04-0.24-4.55h0c0.08-1.45,0.22-2.9,0.23-4.36
        c0.05-12.6,0.08-25.19,0.12-37.79c1.02,0.36,0.06,1.84,1.14,2.16c1.56-4.19,0.94-8.52,1-12.79c0.01-3.03,0.05-6.06,0-9.09
        c-0.02-1.3,0.04-2.9-2.14-2.14c-0.11-1.27-0.21-2.54-0.32-3.81l0,0c0.05-13.56,0.1-27.12,0.14-40.69c0-0.88,0.14-1.87-0.96-2.3
        c-0.36-2.71-2.36-2.41-4.36-2.61c-2.08-0.21-2.29,1.08-2.71,2.42c-1.83,1.36-3.98,1.3-6.09,1.26
        c-24.51-0.43-49.02-0.89-73.53-1.34c-0.82-0.21-1.65-0.43-2.47-0.64c0.6-1.35,2.38-0.25,3.37-1.59c-2.41,0-4.5,0-6.59,0
        c-1.85,0-3.69-0.01-5.54-0.01h0c-1.96-0.5-2.62,0.88-3.27,2.27c-4.44,1.29-1.71,4.8-2.26,7.29c-0.58,1.3-1.16,2.61-1.74,3.91
        c-0.61,0.15-1.54,0.09-1.79,0.47C109.94,103.84,111.96,110.59,115.38,112.27z M219.84,297.06l0.26,0.29L219.84,297.06
        L219.84,297.06z"/>
    </g>
  </g>
</svg>